# xmcd
#
# Track frame offsets:
# 150
# 1462
# 18303
# 37039
# 53473
# 68330
# 88454
# 97978
# 116794
# 131890
#
# Disc length: 2716 seconds
#
#
# Revision: 0
# Processed by: cddbd v1.4PL0 Copyright (c) Steve Scherf et al.
# Submitted via: FreeRIP 2.30 
#
DISCID=7e0a9a0a
DTITLE=Pomata - In Coda
DYEAR=2003
DGENRE=Ska
TTITLE0=Microfono
TTITLE1=Acqua e sapone
TTITLE2=L'estate
TTITLE3=Fosforo
TTITLE4=In coda
TTITLE5=Copertone
TTITLE6=My band
TTITLE7=Tubo caotico
TTITLE8=(S)karate
TTITLE9=S.J.
EXTD=
EXTT0=
EXTT1=
EXTT2=
EXTT3=
EXTT4=
EXTT5=
EXTT6=
EXTT7=
EXTT8=
EXTT9=
PLAYORDER=
